<svg viewBox="0 0 180 68" xml:space="preserve" xmlns="http://www.w3.org/2000/svg"><path d="M173.6 68H6.31C2.834 68 .005 64.382.005 59.954V8.034C.005 3.604 2.834 0 6.31 0H173.6c3.475 0 6.404 3.604 6.404 8.034v51.92c0 4.428-2.93 8.046-6.404 8.046z" fill="#a6a6a6"/><path d="M178.71 59.956c0 3.597-2.285 6.511-5.112 6.511H6.308c-2.825 0-5.119-2.914-5.119-6.511V8.033c0-3.596 2.294-6.52 5.119-6.52h167.29c2.828 0 5.112 2.924 5.112 6.52z"/><g fill="#fff" stroke-width="1.333"><path d="M40.171 35.082c-.039-4.297 3.519-6.388 3.681-6.485-2.014-2.938-5.137-3.339-6.234-3.371-2.623-.276-5.167 1.57-6.503 1.57-1.363 0-3.42-1.543-5.637-1.498-2.854.044-5.523 1.696-6.987 4.261-3.021 5.231-.768 12.917 2.127 17.145 1.448 2.071 3.14 4.383 5.354 4.302 2.167-.09 2.976-1.382 5.591-1.382 2.59 0 3.35 1.382 5.61 1.33 2.325-.038 3.789-2.08 5.186-4.17 1.673-2.373 2.345-4.71 2.372-4.83-.055-.02-4.516-1.722-4.56-6.872zM35.904 22.444c1.165-1.457 1.963-3.44 1.741-5.452-1.686.075-3.796 1.167-5.01 2.592-1.075 1.256-2.035 3.315-1.787 5.25 1.895.142 3.84-.955 5.056-2.39zM161.61 20.491c0 .25-.019.461-.052.633h-4.19c.018.622.218 1.095.606 1.423.355.293.812.44 1.372.44a4.63 4.63 0 0 0 1.695-.297l.218.97c-.596.259-1.297.388-2.109.388-.973 0-1.74-.286-2.295-.86-.557-.573-.833-1.342-.833-2.308 0-.948.257-1.737.776-2.366.541-.672 1.273-1.008 2.197-1.008.904 0 1.591.336 2.055 1.008.375.533.56 1.193.56 1.977zm-1.333-.361c.01-.415-.082-.772-.271-1.074-.243-.388-.612-.582-1.112-.582-.456 0-.828.189-1.112.569-.232.303-.37.664-.415 1.087zM153.98 23.931h-1.399v-3.573c0-1.127-.421-1.691-1.265-1.691-.648 0-1.09.327-1.333.98a1.757 1.757 0 0 0-.066.503v3.78h-1.396v-9.168h1.396v3.788h.027c.44-.69 1.07-1.034 1.888-1.034.579 0 1.057.19 1.437.57.474.473.711 1.177.711 2.108zM146.58 18.692h-1.539v3.053c0 .776.274 1.164.815 1.164.25 0 .459-.021.623-.065l.036 1.06c-.276.104-.639.156-1.086.156-.552 0-.981-.168-1.292-.504-.312-.336-.466-.901-.466-1.695v-3.169h-.919v-1.047h.919v-1.152l1.369-.413v1.564h1.539v1.048zM137.18 23.931h-1.396v-3.6c0-1.11-.421-1.664-1.268-1.664-.415 0-.75.152-1.008.457a1.616 1.616 0 0 0-.388 1.078v3.728h-1.399v-4.488c0-.552-.016-1.151-.049-1.8h1.227l.065.984h.039a2.04 2.04 0 0 1 .724-.76c.38-.234.802-.352 1.268-.352.585 0 1.073.189 1.461.569.484.465.724 1.16.724 2.083zM71.527 48.025h-3.028l-1.659-5.212h-5.765l-1.58 5.212h-2.948l5.712-17.744h3.528zm-5.187-7.399-1.5-4.633c-.158-.473-.456-1.588-.894-3.343h-.054c-.174.755-.456 1.87-.842 3.343l-1.474 4.633zM86.216 41.471c0 2.176-.588 3.896-1.764 5.159-1.053 1.124-2.361 1.685-3.923 1.685-1.685 0-2.896-.605-3.633-1.816h-.053v6.74H74V39.443c0-1.368-.036-2.772-.105-4.212h2.5l.158 2.028h.054c.948-1.528 2.386-2.29 4.317-2.29 1.51 0 2.77.595 3.777 1.789 1.01 1.194 1.515 2.765 1.515 4.713zm-2.896.104c0-1.245-.28-2.272-.843-3.08-.614-.843-1.44-1.264-2.474-1.264-.702 0-1.34.235-1.908.697-.571.467-.944 1.076-1.12 1.831-.087.352-.131.64-.131.867v2.133c0 .93.285 1.716.856 2.357s1.312.962 2.224.962c1.07 0 1.904-.414 2.5-1.238.597-.825.896-1.913.896-3.265zM100.93 41.471c0 2.176-.588 3.896-1.765 5.159-1.052 1.124-2.36 1.685-3.922 1.685-1.685 0-2.896-.605-3.632-1.816h-.053v6.74h-2.843V39.443c0-1.368-.036-2.772-.105-4.212h2.5l.159 2.028h.053c.947-1.528 2.385-2.29 4.317-2.29 1.508 0 2.768.595 3.779 1.789 1.007 1.194 1.512 2.765 1.512 4.713zm-2.896.104c0-1.245-.281-2.272-.844-3.08-.615-.843-1.437-1.264-2.473-1.264-.703 0-1.339.235-1.91.697-.57.467-.942 1.076-1.117 1.831-.087.352-.132.64-.132.867v2.133c0 .93.285 1.716.853 2.357.571.64 1.312.962 2.227.962 1.07 0 1.904-.414 2.5-1.238.597-.825.896-1.913.896-3.265zM117.39 43.049c0 1.51-.524 2.737-1.576 3.685-1.156 1.036-2.765 1.554-4.833 1.554-1.91 0-3.44-.368-4.599-1.106l.659-2.369a7.792 7.792 0 0 0 4.109 1.133c1.07 0 1.904-.242 2.503-.725.596-.483.893-1.13.893-1.939 0-.72-.245-1.326-.737-1.818-.49-.492-1.307-.95-2.448-1.372-3.107-1.16-4.659-2.856-4.659-5.088 0-1.46.544-2.655 1.633-3.586 1.086-.932 2.534-1.397 4.344-1.397 1.615 0 2.956.281 4.027.843l-.71 2.317c-1-.544-2.131-.816-3.397-.816-1 0-1.781.247-2.341.737-.473.439-.71.974-.71 1.607 0 .701.27 1.281.814 1.737.473.422 1.333.878 2.581 1.37 1.527.614 2.648 1.333 3.37 2.157.718.821 1.077 1.85 1.077 3.076zM126.78 37.364h-3.133v6.212c0 1.58.552 2.37 1.658 2.37.508 0 .93-.045 1.263-.133l.079 2.159c-.56.21-1.298.315-2.21.315-1.124 0-2-.343-2.634-1.027-.63-.685-.948-1.835-.948-3.45v-6.449h-1.867v-2.133h1.867v-2.343l2.792-.842v3.185h3.133zM140.92 41.523c0 1.967-.563 3.581-1.685 4.844-1.178 1.3-2.74 1.948-4.688 1.948-1.878 0-3.372-.623-4.487-1.868-1.115-1.245-1.672-2.817-1.672-4.712 0-1.983.573-3.607 1.724-4.87 1.148-1.263 2.697-1.895 4.645-1.895 1.878 0 3.388.622 4.528 1.869 1.091 1.21 1.635 2.77 1.635 4.684zm-2.95.092c0-1.18-.251-2.192-.762-3.036-.596-1.021-1.448-1.53-2.552-1.53-1.143 0-2.01.51-2.607 1.53-.51.845-.762 1.873-.762 3.09 0 1.18.252 2.191.762 3.034.615 1.021 1.474 1.53 2.582 1.53 1.085 0 1.937-.52 2.552-1.557.524-.86.788-1.882.788-3.06zM150.16 37.731a4.936 4.936 0 0 0-.896-.079c-1 0-1.773.378-2.317 1.134-.474.666-.711 1.509-.711 2.526v6.714h-2.841l.026-8.766a69.57 69.57 0 0 0-.106-4.028h2.476l.104 2.448h.078c.3-.841.774-1.518 1.422-2.026.633-.458 1.317-.686 2.054-.686.263 0 .5.019.711.052zM162.87 41.023c0 .51-.033.939-.104 1.29h-8.528c.033 1.263.445 2.23 1.237 2.897.719.596 1.648.894 2.79.894 1.262 0 2.414-.201 3.45-.605l.446 1.973c-1.211.528-2.64.79-4.29.79-1.984 0-3.541-.583-4.674-1.75-1.131-1.166-1.698-2.733-1.698-4.698 0-1.93.527-3.536 1.582-4.818 1.104-1.368 2.596-2.052 4.473-2.052 1.844 0 3.24.684 4.188 2.052.75 1.087 1.128 2.43 1.128 4.027zm-2.71-.737c.018-.843-.167-1.571-.553-2.186-.492-.79-1.248-1.185-2.265-1.185-.93 0-1.685.385-2.263 1.159-.473.614-.754 1.352-.841 2.21h5.921zM65.4 19.365c0 1.57-.47 2.75-1.41 3.544-.871.732-2.109 1.099-3.711 1.099-.795 0-1.475-.035-2.044-.104v-8.575c.742-.12 1.542-.181 2.406-.181 1.527 0 2.678.332 3.454.996.869.75 1.305 1.824 1.305 3.221zm-1.473.039c0-1.018-.27-1.798-.808-2.342-.539-.542-1.326-.814-2.362-.814-.44 0-.814.029-1.125.09v6.52c.172.026.487.038.944.038 1.07 0 1.895-.298 2.476-.892.581-.595.875-1.462.875-2.6zM73.212 20.736c0 .967-.276 1.759-.828 2.38-.579.639-1.345.957-2.303.957-.922 0-1.657-.305-2.205-.918-.547-.612-.82-1.384-.82-2.315 0-.973.281-1.772.847-2.392s1.325-.93 2.282-.93c.923 0 1.664.305 2.226.917.533.594.801 1.362.801 2.3zm-1.45.045c0-.58-.125-1.077-.374-1.492-.293-.501-.71-.752-1.253-.752-.562 0-.988.251-1.282.752-.25.415-.374.92-.374 1.518 0 .58.125 1.077.374 1.492.303.501.724.752 1.268.752.534 0 .952-.255 1.254-.766.258-.422.388-.924.388-1.504zM83.687 17.645 81.72 23.93h-1.28l-.814-2.729a20.425 20.425 0 0 1-.506-2.03h-.025c-.121.69-.29 1.366-.505 2.03l-.866 2.73H76.43l-1.85-6.286h1.436l.711 2.988c.172.707.313 1.38.427 2.017h.025c.104-.525.276-1.194.519-2.004l.892-3h1.138l.855 2.936c.207.716.375 1.406.504 2.07h.039c.094-.647.237-1.336.426-2.07l.763-2.936h1.372zM90.931 23.931h-1.397v-3.6c0-1.11-.422-1.664-1.267-1.664-.415 0-.75.152-1.01.457a1.623 1.623 0 0 0-.387 1.078v3.728h-1.398v-4.488c0-.552-.017-1.151-.05-1.8h1.228l.065.984h.039c.162-.306.405-.558.724-.76a2.362 2.362 0 0 1 1.266-.352c.587 0 1.075.189 1.463.569.483.465.724 1.16.724 2.083zM94.784 23.931h-1.396v-9.17h1.396zM103.01 20.736c0 .967-.276 1.759-.828 2.38-.579.639-1.347.957-2.303.957-.924 0-1.658-.305-2.205-.918-.547-.612-.82-1.384-.82-2.315 0-.973.281-1.772.847-2.392s1.325-.93 2.281-.93c.924 0 1.664.305 2.227.917.533.594.801 1.362.801 2.3zm-1.45.045c0-.58-.126-1.077-.375-1.492-.292-.501-.711-.752-1.252-.752-.563 0-.99.251-1.282.752-.25.415-.374.92-.374 1.518 0 .58.125 1.077.374 1.492.303.501.724.752 1.268.752.534 0 .951-.255 1.252-.766.26-.422.388-.924.388-1.504zM109.77 23.931h-1.255l-.104-.724h-.038c-.43.577-1.042.867-1.836.867-.594 0-1.074-.191-1.435-.57-.328-.344-.492-.772-.492-1.28 0-.768.32-1.353.964-1.758.643-.406 1.547-.604 2.71-.595v-.117c0-.828-.434-1.242-1.305-1.242-.62 0-1.166.156-1.638.466l-.284-.918c.584-.361 1.305-.542 2.156-.542 1.642 0 2.466.866 2.466 2.6v2.314c0 .628.031 1.128.091 1.5zm-1.45-2.16v-.97c-1.542-.026-2.313.397-2.313 1.267 0 .328.088.574.268.738s.41.245.683.245c.307 0 .593-.097.855-.29a1.19 1.19 0 0 0 .506-.99zM117.71 23.931h-1.24l-.065-1.01h-.039c-.396.769-1.07 1.153-2.019 1.153-.757 0-1.388-.298-1.888-.892s-.749-1.367-.749-2.315c0-1.017.27-1.841.815-2.47.526-.587 1.172-.88 1.94-.88.844 0 1.434.283 1.77.853h.027v-3.608h1.399v7.476c0 .612.016 1.176.049 1.693zm-1.448-2.65v-1.049a1.592 1.592 0 0 0-.544-1.287 1.373 1.373 0 0 0-.935-.342c-.521 0-.929.207-1.229.621-.297.415-.448.944-.448 1.591 0 .621.143 1.125.43 1.513.302.414.71.62 1.22.62.46 0 .826-.172 1.105-.517.269-.319.401-.703.401-1.15zM129.66 20.736c0 .967-.276 1.759-.828 2.38-.579.639-1.344.957-2.303.957-.921 0-1.656-.305-2.205-.918-.547-.612-.82-1.384-.82-2.315 0-.973.281-1.772.847-2.392.565-.62 1.325-.93 2.284-.93.921 0 1.664.305 2.224.917.533.594.801 1.362.801 2.3zm-1.448.045c0-.58-.125-1.077-.375-1.492-.294-.501-.71-.752-1.254-.752-.56 0-.987.251-1.282.752-.25.415-.374.92-.374 1.518 0 .58.125 1.077.374 1.492.303.501.724.752 1.268.752.534 0 .954-.255 1.255-.766.257-.422.388-.924.388-1.504z"/></g></svg>