<svg viewBox="0 0 180 68" xml:space="preserve" xmlns="http://www.w3.org/2000/svg"><path d="M173.6 68H6.31C2.834 68 .005 64.382.005 59.954V8.034C.005 3.604 2.834 0 6.31 0H173.6c3.475 0 6.404 3.604 6.404 8.034v51.92c0 4.428-2.93 8.046-6.404 8.046Z" fill="#a6a6a6"/><path d="M178.71 59.956c0 3.597-2.285 6.511-5.112 6.511H6.308c-2.825 0-5.119-2.914-5.119-6.511V8.033c0-3.595 2.294-6.52 5.119-6.52h167.29c2.828 0 5.112 2.925 5.112 6.52z"/><path style="opacity:1;fill:#fff;stroke:none;stroke-width:.675846" d="M20.38 17a17.598 18.457 0 0 0-.058.038l.057-.038zm20.258.955c.141.115.283.227.421.346a17.598 18.457 0 0 0-.421-.346zm-22.244.6a17.598 18.457 0 0 0-.094.084c.03-.029.063-.055.094-.083zm-1.787 1.858a17.598 18.457 0 0 0-.075.092l.075-.092zm5.098 1.364c-1.069 1.123-.562 4.07-.157 5.516-1.234 1.457-1.96 3.188-1.96 4.975 0 4.152 2.799 7.21 8.66 7.841-1.017.557-1.848 1.736-2.33 3.017-.894.148-1.845.187-2.48.187-1.31 0-1.639-.22-2.34-1.183-.704-.963-1.453-1.614-2.354-1.882-.489-.053-.81.346-.387.695 1.428 1.05 1.529 2.766 2.105 3.887.52 1.009 1.589 1.55 2.793 1.55h2.211v3.156c0 .35.05.63.129.875a17.598 18.457 0 0 0 4.27.589 17.598 18.457 0 0 0 5.82-1.083c.019-.124.046-.233.046-.381V45.33c0-1.866-1.173-4.342-2.784-5.224 5.852-.635 8.642-3.69 8.642-7.838 0-1.784-.719-3.51-1.945-4.963.41-1.443.922-4.404-.152-5.528-2.642 0-4.236 1.799-4.614 2.28a12.642 12.642 0 0 0-4.288-.742c-1.516 0-2.96.267-4.273.74-.383-.485-1.975-2.278-4.612-2.278zm-6.62.754a17.598 18.457 0 0 0-.048.083l.049-.083zm32.184 7.267c.015.106.024.213.037.32a17.598 18.457 0 0 0-.037-.32zm.172 1.805c.014.311.022.625.022.94a17.598 18.457 0 0 0-.022-.94zm-1.556 8.577-.023.054a17.598 18.457 0 0 0 .023-.054zm-1.151 2.222c-.046.075-.091.15-.138.224a17.598 18.457 0 0 0 .138-.224zM15 42.408a17.598 18.457 0 0 0 .129.21l-.129-.21Zm1.452 2.061a17.598 18.457 0 0 0 .284.34c-.096-.112-.19-.225-.284-.34Zm26.818.015c-.084.103-.172.204-.258.305a17.598 18.457 0 0 0 .258-.305zm-25.1 1.828a17.598 18.457 0 0 0 .344.316c-.116-.103-.23-.21-.343-.316zm23.393 0c-.125.117-.255.23-.384.343a17.598 18.457 0 0 0 .384-.343zm-1.933 1.565a17.53 17.53 0 0 1-.524.352 17.598 18.457 0 0 0 .524-.352zm-19.514.011a17.598 18.457 0 0 0 .524.35 17.5 17.5 0 0 1-.524-.35zm2.168 1.29a17.598 18.457 0 0 0 .527.257c-.178-.081-.353-.17-.527-.257zm15.143.012c-.157.078-.315.157-.475.23a17.598 18.457 0 0 0 .475-.23zm-12.855.934a17.598 18.457 0 0 0 .7.213 16.93 16.93 0 0 1-.7-.213z"/><path d="M60.344 16.813c-.957 0-1.709.222-2.256.667-.543.446-.814 1.055-.814 1.829 0 .668.197 1.189.592 1.564.394.375 1.033.65 1.916.826l.72.14c.602.122 1.034.304 1.295.546.266.242.399.578.399 1.008 0 .492-.184.87-.55 1.136-.368.266-.89.399-1.565.399-.446 0-.899-.069-1.36-.205a6.917 6.917 0 0 1-1.412-.61v1.219c.5.184.983.322 1.447.416.47.094.91.14 1.325.14 1.097 0 1.93-.218 2.496-.656.57-.437.855-1.08.855-1.927 0-.711-.21-1.278-.633-1.7-.418-.425-1.068-.722-1.95-.89l-.716-.147c-.648-.12-1.09-.279-1.324-.474-.23-.2-.346-.492-.346-.88 0-.46.174-.816.522-1.066.352-.25.85-.375 1.494-.375.371 0 .756.053 1.154.159a7.3 7.3 0 0 1 1.272.48v-1.154a9.048 9.048 0 0 0-1.307-.334 7.294 7.294 0 0 0-1.254-.111Zm4.87.48v1.863h-.792v.838h.791v3.563c0 .82.159 1.386.475 1.699.316.308.89.463 1.723.463h1.107v-.903h-1.107c-.45 0-.748-.076-.897-.228-.144-.152-.217-.496-.217-1.031v-3.563h2.221v-.838h-2.22v-1.863zm7.025 1.705c-.352 0-.713.04-1.084.117a7.012 7.012 0 0 0-1.149.34v.996a4.343 4.343 0 0 1 2.122-.539c.59 0 1.046.137 1.37.41.329.27.493.653.493 1.149v.105h-1.512c-.98 0-1.719.188-2.215.563-.492.375-.738.931-.738 1.67 0 .632.197 1.138.592 1.517.398.375.933.563 1.605.563.531 0 .98-.094 1.348-.282a2.37 2.37 0 0 0 .92-.884v.996h1.078v-3.744c0-1-.234-1.746-.703-2.239-.469-.492-1.178-.738-2.127-.738zm8.303 0c-.52 0-.961.098-1.325.293a2.19 2.19 0 0 0-.884.885v-1.02h-1.084v6.563h1.084v-3.457c0-.742.162-1.31.486-1.705.328-.399.797-.598 1.406-.598.172 0 .328.018.469.053.144.031.277.082.398.152l-.006-1.107a3.383 3.383 0 0 0-.298-.041 1.916 1.916 0 0 0-.246-.018zm8.039 0c-.942 0-1.68.305-2.215.914-.531.61-.797 1.453-.797 2.531 0 1.075.266 1.918.797 2.532.535.609 1.273.914 2.215.914.937 0 1.673-.305 2.209-.914.535-.614.802-1.457.802-2.532 0-1.078-.267-1.922-.802-2.53-.536-.61-1.272-.915-2.21-.915zm7.963 0c-.457 0-.862.098-1.213.293-.348.195-.65.49-.909.885v-1.02h-1.084v6.563h1.084v-3.71c0-.64.168-1.146.504-1.517.336-.37.795-.556 1.377-.556.485 0 .848.154 1.09.462.242.309.363.774.363 1.395v3.926h1.079v-3.961c0-.906-.194-1.592-.58-2.057-.387-.469-.958-.703-1.711-.703zm-7.963.914c.574 0 1.029.229 1.365.686.336.453.504 1.068.504 1.845 0 .782-.168 1.399-.504 1.852-.336.453-.791.68-1.365.68-.582 0-1.041-.225-1.377-.674-.332-.453-.498-1.072-.498-1.858 0-.785.168-1.402.504-1.851.335-.453.793-.68 1.37-.68zM72.919 22.42h1.072v.24c0 .703-.182 1.268-.545 1.694-.36.421-.838.632-1.436.632-.433 0-.777-.111-1.03-.334-.25-.226-.376-.53-.376-.914 0-.48.168-.82.504-1.02.336-.198.94-.298 1.81-.298z" style="font-size:12px;font-family:System-ui;-inkscape-font-specification:'System-ui, Normal';fill:#fff;stroke-width:.291682"/><path style="color:#000;font-size:24px;font-family:System-ui;-inkscape-font-specification:'System-ui, Normal';fill:#fff;stroke:none;stroke-width:.580024;-inkscape-stroke:none" d="M76.186 32.033v3.311h2.736v-3.31zm15.996 0v18.815h2.748V43.14c0-1.23.317-2.16.933-2.84.616-.68 1.437-1.02 2.54-1.02.907 0 1.524.273 1.95.817.427.543.665 1.405.665 2.609v8.14h2.736v-8.21c0-1.854-.394-3.298-1.227-4.3-.832-1.008-2.076-1.51-3.644-1.51-.956 0-1.817.206-2.567.622h-.002c-.535.301-.956.834-1.384 1.348v-6.764zm30.422 0v18.815h2.748v-1.563c.389.494.763 1.016 1.28 1.305l.003.002c.744.401 1.624.596 2.623.596 1.67 0 3.067-.684 4.105-2.008 1.048-1.326 1.563-3.063 1.563-5.172 0-2.11-.515-3.846-1.563-5.172-1.038-1.324-2.435-2.01-4.105-2.01-.999 0-1.879.202-2.623.612-.52.283-.894.802-1.283 1.294v-6.699Zm-56.909.422c-2.79 0-5.024.83-6.63 2.492-1.6 1.656-2.391 3.97-2.391 6.881 0 2.904.792 5.217 2.39 6.881 1.607 1.655 3.84 2.478 6.631 2.478 1.276 0 2.48-.167 3.61-.503h.002a10.761 10.761 0 0 0 3.107-1.518l.121-.086v-7.953h-6.79v2.525h3.866v4.215a5.915 5.915 0 0 1-1.543.592c-.63.135-1.355.203-2.173.203-2.087 0-3.6-.57-4.614-1.695-1.007-1.125-1.531-2.823-1.531-5.139 0-2.323.524-4.026 1.531-5.15 1.014-1.125 2.527-1.698 4.614-1.698 1.052 0 2.05.183 3.001.545a9.28 9.28 0 0 1 2.706 1.625l.476.407V34.25l-.135-.086a10.756 10.756 0 0 0-2.925-1.275 12.487 12.487 0 0 0-3.323-.434zm17.123.961v3.727h-1.582v2.255h1.582v6.836c0 1.678.312 2.892 1.036 3.606h.002c.723.706 1.948 1.008 3.648 1.008h2.504v-2.385h-2.504c-.865 0-1.389-.17-1.584-.37-.172-.182-.354-.817-.354-1.859v-6.836h4.442v-2.255h-4.442v-3.727h-.289zm-6.632 3.727V50.848h2.736V37.143Zm31.066 0v8.236c0 1.846.4 3.29 1.24 4.299.84 1.008 2.089 1.51 3.656 1.51.955 0 1.808-.2 2.543-.61l.002-.002c.537-.301.962-.837 1.395-1.355v1.627h2.736V37.143h-2.736v7.732c0 1.23-.32 2.159-.943 2.84-.616.68-1.437 1.017-2.54 1.017-.907 0-1.524-.27-1.95-.814-.427-.552-.667-1.417-.667-2.621v-8.154zm21.478 2.068c1.064 0 1.846.397 2.448 1.238v.002l.002.002c.608.833.927 2.009.927 3.555 0 1.546-.318 2.727-.927 3.568h-.002c-.601.833-1.383 1.227-2.448 1.227-1.064 0-1.851-.395-2.46-1.229-.6-.84-.918-2.022-.918-3.566 0-1.547.316-2.724.918-3.557.609-.841 1.397-1.24 2.46-1.24z"/></svg>