<svg viewBox="0 0 180 68" xmlns="http://www.w3.org/2000/svg">
   <path
      d="M173.33 68H6.67C2.992 68 0 64.168 0 59.5v-51C0 3.815 2.993 0 6.67 0h166.66c3.673 0 6.67 3.815 6.67 8.5v51c0 4.668-2.997 8.5-6.67 8.5z"
      style="stroke-width:.0374677;fill-rule:evenodd;clip-rule:evenodd" />
   <path
      d="M173.33 1.36c3.084 0 5.607 3.21 5.607 7.14v51c0 3.93-2.507 7.14-5.606 7.14H6.669c-3.083 0-5.606-3.21-5.606-7.14v-51c0-3.93 2.507-7.14 5.606-7.14h166.662zm0-1.36H6.67C2.992 0 0 3.832 0 8.5v51C0 64.185 2.993 68 6.67 68h166.66c3.673 0 6.67-3.815 6.67-8.5v-51c0-4.668-2.997-8.5-6.67-8.5Z"
      style="stroke-width:.0374677;fill-rule:evenodd;clip-rule:evenodd;fill:#a6a6a6" />
   <path
      d="M94.825 24.46c-1.202 0-2.216-.42-3.017-1.248a4.252 4.252 0 0 1-1.219-3.047c0-1.209.411-2.232 1.219-3.043.798-.828 1.811-1.248 3.013-1.248 1.19 0 2.202.42 3.017 1.248.808.838 1.219 1.86 1.219 3.043-.014 1.212-.424 2.235-1.219 3.043-.798.835-1.811 1.252-3.013 1.252zm-35.767 0c-1.175 0-2.195-.414-3.03-1.232-.827-.815-1.248-1.844-1.248-3.06 0-1.215.42-2.245 1.249-3.06.817-.817 1.837-1.231 3.03-1.231.582 0 1.149.116 1.692.35.533.23.967.54 1.288.921l.08.096-.898.881-.093-.109c-.507-.603-1.185-.897-2.083-.897-.801 0-1.5.284-2.076.847-.58.567-.874 1.308-.874 2.206 0 .897.294 1.639.874 2.205a2.879 2.879 0 0 0 2.076.848c.855 0 1.573-.285 2.133-.848.33-.331.536-.795.609-1.38h-2.878v-1.24h4.113l.017.113c.03.209.06.424.06.623 0 1.142-.345 2.066-1.027 2.748-.775.808-1.788 1.219-3.014 1.219zm47.555-.176h-1.268l-3.884-6.215.033 1.12v5.092h-1.268v-8.229h1.447l.04.063 3.652 5.855-.033-1.116v-4.802h1.281zm-21.318 0H84.01v-6.993H81.78v-1.239h5.739v1.239H85.29v6.993zm-4.56 0h-1.282v-8.232h1.282zm-7.202 0H72.25v-6.993h-2.229v-1.239h5.74v1.239h-2.23zm-4.322-.013h-4.914v-8.219h4.914v1.239h-3.63v2.258h3.276v1.225h-3.275v2.259h3.63zm23.537-1.91a2.836 2.836 0 0 0 2.077.86c.83 0 1.51-.281 2.076-.86.563-.563.848-1.302.848-2.193 0-.89-.285-1.632-.845-2.192a2.84 2.84 0 0 0-2.076-.86c-.831 0-1.51.28-2.073.86-.563.563-.848 1.302-.848 2.192 0 .891.282 1.633.841 2.193z"
      style="stroke-width:.0331138;fill:#fff" />
   <path
      d="M90.47 35.778c-3.129 0-5.666 2.374-5.666 5.65 0 3.245 2.554 5.649 5.666 5.649 3.13 0 5.666-2.391 5.666-5.65 0-3.275-2.537-5.649-5.666-5.649zm0 9.06c-1.712 0-3.185-1.417-3.185-3.424 0-2.036 1.477-3.424 3.185-3.424 1.712 0 3.186 1.388 3.186 3.424.003 2.02-1.474 3.424-3.186 3.424zm-12.361-9.06c-3.13 0-5.666 2.374-5.666 5.65 0 3.245 2.553 5.649 5.666 5.649 3.13 0 5.666-2.391 5.666-5.65 0-3.275-2.54-5.649-5.666-5.649zm0 9.06c-1.712 0-3.186-1.417-3.186-3.424 0-2.036 1.477-3.424 3.186-3.424 1.712 0 3.185 1.388 3.185 3.424 0 2.02-1.473 3.424-3.185 3.424zm-14.71-7.335v2.391h5.74c-.176 1.341-.62 2.331-1.299 3.01-.84.841-2.139 1.755-4.427 1.755-3.527 0-6.285-2.847-6.285-6.374 0-3.527 2.758-6.374 6.285-6.374 1.904 0 3.291.751 4.321 1.712l1.696-1.696c-1.43-1.37-3.335-2.42-6.004-2.42-4.838 0-8.898 3.94-8.898 8.765 0 4.838 4.057 8.765 8.898 8.765 2.613 0 4.573-.854 6.123-2.464 1.58-1.58 2.08-3.808 2.08-5.606 0-.56-.044-1.063-.133-1.49h-8.1c.004-.003.004.026.004.026zm60.165 1.861c-.473-1.268-1.904-3.599-4.838-3.599-2.907 0-5.324 2.288-5.324 5.65 0 3.171 2.39 5.648 5.606 5.648 2.583 0 4.086-1.58 4.705-2.506l-1.917-1.285c-.636.944-1.52 1.563-2.775 1.563-1.268 0-2.156-.576-2.745-1.712l7.553-3.13c0 .004-.265-.629-.265-.629zm-7.702 1.888c-.06-2.182 1.695-3.292 2.95-3.292.99 0 1.815.487 2.096 1.196zm-6.136 5.474h2.48V30.129h-2.48zm-4.073-9.693h-.09c-.56-.665-1.622-1.268-2.98-1.268-2.818 0-5.414 2.48-5.414 5.666 0 3.172 2.583 5.622 5.414 5.622 1.341 0 2.42-.606 2.98-1.284h.09v.81c0 2.157-1.152 3.319-3.01 3.319-1.52 0-2.464-1.093-2.848-2.007l-2.156.9c.62 1.491 2.272 3.335 5 3.335 2.908 0 5.372-1.711 5.372-5.887V36.103h-2.345v.93h-.013zm-2.848 7.805c-1.712 0-3.142-1.43-3.142-3.407 0-1.994 1.43-3.437 3.142-3.437 1.696 0 3.01 1.46 3.01 3.437.017 1.977-1.311 3.407-3.01 3.407zm32.372-14.709h-5.93v16.597h2.48V40.44h3.453c2.746 0 5.444-1.99 5.444-5.15 0-3.159-2.688-5.162-5.447-5.162zm.073 7.994h-3.527v-5.696h3.527c1.858 0 2.907 1.533 2.907 2.848 0 1.301-1.063 2.848-2.907 2.848zm15.315-2.375c-1.801 0-3.659.798-4.427 2.537l2.199.914c.473-.914 1.34-1.225 2.258-1.225 1.285 0 2.583.768 2.613 2.139v.175c-.444-.251-1.418-.635-2.583-.635-2.375 0-4.782 1.298-4.782 3.731 0 2.229 1.947 3.66 4.116 3.66 1.666 0 2.583-.752 3.156-1.623h.09v1.285h2.39v-6.358c0-2.96-2.199-4.6-5.03-4.6zm-.311 9.09c-.811 0-1.947-.397-1.947-1.417 0-1.285 1.417-1.772 2.626-1.772 1.092 0 1.609.235 2.258.56a2.986 2.986 0 0 1-2.937 2.63zm14.063-8.735-2.848 7.199h-.089l-2.95-7.2h-2.67l4.428 10.064-2.523 5.593h2.583l6.811-15.656h-2.742zm-22.325 10.623h2.48V30.129h-2.48z"
      style="display:inline;stroke-width:.0331138;fill-rule:evenodd;clip-rule:evenodd;fill:#fff" />
   <linearGradient id="a" gradientUnits="userSpaceOnUse" x1="1682.108" y1="1339.478" x2="1624.292" y2="1309.634"
      gradientTransform="matrix(.38544 0 0 -.74672 -619.413 1019.212)">
      <stop offset="0" style="stop-color:#00a0ff" />
      <stop offset=".007" style="stop-color:#00a1ff" />
      <stop offset=".26" style="stop-color:#00beff" />
      <stop offset=".512" style="stop-color:#00d2ff" />
      <stop offset=".76" style="stop-color:#00dfff" />
      <stop offset="1" style="stop-color:#00e3ff" />
   </linearGradient>
   <linearGradient id="b" gradientUnits="userSpaceOnUse" x1="1712.662" y1="1274.838" x2="1606.561" y2="1274.838"
      gradientTransform="matrix(.30283 0 0 -.25498 -473.71 359.051)">
      <stop offset="0" style="stop-color:#ffe000" />
      <stop offset=".409" style="stop-color:#ffbd00" />
      <stop offset=".775" style="stop-color:orange" />
      <stop offset="1" style="stop-color:#ff9c00" />
   </linearGradient>
   <linearGradient id="c" gradientUnits="userSpaceOnUse" x1="1707.441" y1="1290.047" x2="1646.682" y2="1211.223"
      gradientTransform="matrix(.49737 0 0 -.38338 -816.263 531.62)">
      <stop offset="0" style="stop-color:#ff3a44" />
      <stop offset="1" style="stop-color:#c31162" />
   </linearGradient>
   <linearGradient id="d" gradientUnits="userSpaceOnUse" x1="1660.636" y1="1365.668" x2="1687.767" y2="1330.45"
      gradientTransform="matrix(.49737 0 0 -.38318 -816.263 530.97)">
      <stop offset="0" style="stop-color:#32a071" />
      <stop offset=".069" style="stop-color:#2da771" />
      <stop offset=".476" style="stop-color:#15cf74" />
      <stop offset=".801" style="stop-color:#06e775" />
      <stop offset="1" style="stop-color:#00f076" />
   </linearGradient>
   <path
      d="M13.855 17.444c-.384.414-.606 1.047-.606 1.875V48.68c0 .827.222 1.46.62 1.857l.102.09 16.45-16.451v-.368L13.958 17.355l-.102.09z"
      style="fill:url(#a);stroke-width:.0331138;fill-rule:evenodd;clip-rule:evenodd" />
   <path
      d="m35.895 39.677-5.487-5.487v-.384l5.487-5.487.12.073 6.49 3.689c1.858 1.046 1.858 2.775 0 3.834l-6.49 3.69-.12.072z"
      style="fill:url(#b);stroke-width:.0331138;fill-rule:evenodd;clip-rule:evenodd" />
   <path d="m36.015 39.604-5.607-5.606L13.855 50.55c.606.65 1.622.722 2.758.09l19.402-11.037"
      style="fill:url(#c);stroke-width:.0331138;fill-rule:evenodd;clip-rule:evenodd" />
   <path d="m36.015 28.392-19.402-11.02c-1.136-.65-2.156-.56-2.758.089l16.553 16.537z"
      style="fill:url(#d);stroke-width:.0331138;fill-rule:evenodd;clip-rule:evenodd" />
   <path
      d="M35.895 39.485 16.626 50.432c-1.076.62-2.036.576-2.655.014l-.103.102.103.09c.619.56 1.58.606 2.655-.014l19.402-11.02-.133-.12z"
      style="stroke-width:.0331138;opacity:.2;fill-rule:evenodd;clip-rule:evenodd;enable-background:new" />
   <path d="m42.505 35.723-6.626 3.762.119.12 6.49-3.69c.93-.53 1.388-1.225 1.388-1.917-.057.636-.53 1.238-1.371 1.725z"
      style="stroke-width:.0331138;opacity:.12;fill-rule:evenodd;clip-rule:evenodd;enable-background:new" />
   <path
      d="m16.613 17.564 25.892 14.709c.841.473 1.314 1.092 1.387 1.725 0-.692-.457-1.388-1.387-1.917L16.613 17.37c-1.857-1.062-3.364-.175-3.364 1.948v.192c0-2.126 1.507-2.997 3.364-1.947z"
      style="stroke-width:.0331138;opacity:.25;fill-rule:evenodd;clip-rule:evenodd;fill:#fff;enable-background:new" />
</svg>